<mxfile host="app.diagrams.net" modified="2023-03-23T21:49:35.439Z" agent="5.0 (X11; Linux x86_64) AppleWebKit/537.36 (KHTML, like Gecko) Chrome/111.0.0.0 Safari/537.36" version="20.7.4" etag="xSqFedv2CVh62vUhBfnf" type="github">
  <diagram id="AW1u_PZhpx9pDzWk55VF" name="Page-1">
    <mxGraphModel dx="1434" dy="807" grid="1" gridSize="10" guides="1" tooltips="1" connect="1" arrows="1" fold="1" page="1" pageScale="1" pageWidth="850" pageHeight="1100" math="0" shadow="0">
      <root>
        <mxCell id="0" />
        <mxCell id="1" parent="0" />
        <mxCell id="pQgPjIyGJ7DModx60rK_-7" style="edgeStyle=orthogonalEdgeStyle;rounded=0;orthogonalLoop=1;jettySize=auto;html=1;exitX=1;exitY=0.5;exitDx=0;exitDy=0;" edge="1" parent="1" source="pQgPjIyGJ7DModx60rK_-1" target="pQgPjIyGJ7DModx60rK_-2">
          <mxGeometry relative="1" as="geometry" />
        </mxCell>
        <mxCell id="pQgPjIyGJ7DModx60rK_-1" value="IM" style="rounded=0;whiteSpace=wrap;html=1;" vertex="1" parent="1">
          <mxGeometry x="120" y="240" width="40" height="40" as="geometry" />
        </mxCell>
        <mxCell id="pQgPjIyGJ7DModx60rK_-8" style="edgeStyle=orthogonalEdgeStyle;rounded=0;orthogonalLoop=1;jettySize=auto;html=1;exitX=1;exitY=0.5;exitDx=0;exitDy=0;entryX=0;entryY=0.5;entryDx=0;entryDy=0;" edge="1" parent="1" source="pQgPjIyGJ7DModx60rK_-2" target="pQgPjIyGJ7DModx60rK_-6">
          <mxGeometry relative="1" as="geometry" />
        </mxCell>
        <mxCell id="pQgPjIyGJ7DModx60rK_-2" value="RF" style="rounded=0;whiteSpace=wrap;html=1;" vertex="1" parent="1">
          <mxGeometry x="180" y="240" width="40" height="40" as="geometry" />
        </mxCell>
        <mxCell id="pQgPjIyGJ7DModx60rK_-10" style="edgeStyle=orthogonalEdgeStyle;rounded=0;orthogonalLoop=1;jettySize=auto;html=1;exitX=1;exitY=0.5;exitDx=0;exitDy=0;entryX=0;entryY=0.5;entryDx=0;entryDy=0;" edge="1" parent="1" source="pQgPjIyGJ7DModx60rK_-3" target="pQgPjIyGJ7DModx60rK_-4">
          <mxGeometry relative="1" as="geometry" />
        </mxCell>
        <mxCell id="pQgPjIyGJ7DModx60rK_-3" value="DM" style="rounded=0;whiteSpace=wrap;html=1;" vertex="1" parent="1">
          <mxGeometry x="300" y="240" width="40" height="40" as="geometry" />
        </mxCell>
        <mxCell id="pQgPjIyGJ7DModx60rK_-4" value="RF" style="rounded=0;whiteSpace=wrap;html=1;" vertex="1" parent="1">
          <mxGeometry x="360" y="240" width="40" height="40" as="geometry" />
        </mxCell>
        <mxCell id="pQgPjIyGJ7DModx60rK_-9" style="edgeStyle=orthogonalEdgeStyle;rounded=0;orthogonalLoop=1;jettySize=auto;html=1;exitX=1;exitY=0.5;exitDx=0;exitDy=0;entryX=0;entryY=0.5;entryDx=0;entryDy=0;" edge="1" parent="1" source="pQgPjIyGJ7DModx60rK_-6" target="pQgPjIyGJ7DModx60rK_-3">
          <mxGeometry relative="1" as="geometry" />
        </mxCell>
        <mxCell id="pQgPjIyGJ7DModx60rK_-80" style="edgeStyle=orthogonalEdgeStyle;rounded=0;orthogonalLoop=1;jettySize=auto;html=1;exitX=1;exitY=0.75;exitDx=0;exitDy=0;entryX=0;entryY=0.25;entryDx=0;entryDy=0;" edge="1" parent="1" source="pQgPjIyGJ7DModx60rK_-6" target="pQgPjIyGJ7DModx60rK_-19">
          <mxGeometry relative="1" as="geometry">
            <Array as="points">
              <mxPoint x="290" y="270" />
              <mxPoint x="290" y="310" />
            </Array>
          </mxGeometry>
        </mxCell>
        <mxCell id="pQgPjIyGJ7DModx60rK_-81" style="edgeStyle=orthogonalEdgeStyle;rounded=0;orthogonalLoop=1;jettySize=auto;html=1;exitX=1;exitY=0.75;exitDx=0;exitDy=0;entryX=0;entryY=0.25;entryDx=0;entryDy=0;" edge="1" parent="1" source="pQgPjIyGJ7DModx60rK_-6" target="pQgPjIyGJ7DModx60rK_-23">
          <mxGeometry relative="1" as="geometry">
            <Array as="points">
              <mxPoint x="290" y="270" />
              <mxPoint x="290" y="370" />
            </Array>
          </mxGeometry>
        </mxCell>
        <mxCell id="pQgPjIyGJ7DModx60rK_-6" value="E" style="rounded=0;whiteSpace=wrap;html=1;" vertex="1" parent="1">
          <mxGeometry x="240" y="240" width="40" height="40" as="geometry" />
        </mxCell>
        <mxCell id="pQgPjIyGJ7DModx60rK_-11" style="edgeStyle=orthogonalEdgeStyle;rounded=0;orthogonalLoop=1;jettySize=auto;html=1;exitX=1;exitY=0.5;exitDx=0;exitDy=0;" edge="1" parent="1" source="pQgPjIyGJ7DModx60rK_-12" target="pQgPjIyGJ7DModx60rK_-14">
          <mxGeometry relative="1" as="geometry" />
        </mxCell>
        <mxCell id="pQgPjIyGJ7DModx60rK_-12" value="IM" style="rounded=0;whiteSpace=wrap;html=1;" vertex="1" parent="1">
          <mxGeometry x="180" y="300" width="40" height="40" as="geometry" />
        </mxCell>
        <mxCell id="pQgPjIyGJ7DModx60rK_-13" style="edgeStyle=orthogonalEdgeStyle;rounded=0;orthogonalLoop=1;jettySize=auto;html=1;exitX=1;exitY=0.5;exitDx=0;exitDy=0;entryX=0;entryY=0.5;entryDx=0;entryDy=0;" edge="1" parent="1" source="pQgPjIyGJ7DModx60rK_-14" target="pQgPjIyGJ7DModx60rK_-19">
          <mxGeometry relative="1" as="geometry" />
        </mxCell>
        <mxCell id="pQgPjIyGJ7DModx60rK_-14" value="RF" style="rounded=0;whiteSpace=wrap;html=1;" vertex="1" parent="1">
          <mxGeometry x="240" y="300" width="40" height="40" as="geometry" />
        </mxCell>
        <mxCell id="pQgPjIyGJ7DModx60rK_-15" style="edgeStyle=orthogonalEdgeStyle;rounded=0;orthogonalLoop=1;jettySize=auto;html=1;exitX=1;exitY=0.5;exitDx=0;exitDy=0;entryX=0;entryY=0.5;entryDx=0;entryDy=0;" edge="1" parent="1" source="pQgPjIyGJ7DModx60rK_-16" target="pQgPjIyGJ7DModx60rK_-17">
          <mxGeometry relative="1" as="geometry" />
        </mxCell>
        <mxCell id="pQgPjIyGJ7DModx60rK_-16" value="DM" style="rounded=0;whiteSpace=wrap;html=1;" vertex="1" parent="1">
          <mxGeometry x="360" y="300" width="40" height="40" as="geometry" />
        </mxCell>
        <mxCell id="pQgPjIyGJ7DModx60rK_-76" style="edgeStyle=orthogonalEdgeStyle;rounded=0;orthogonalLoop=1;jettySize=auto;html=1;exitX=1;exitY=1;exitDx=0;exitDy=0;entryX=0;entryY=0;entryDx=0;entryDy=0;" edge="1" parent="1" source="pQgPjIyGJ7DModx60rK_-17" target="pQgPjIyGJ7DModx60rK_-37">
          <mxGeometry y="-10" relative="1" as="geometry">
            <Array as="points">
              <mxPoint x="460" y="350" />
              <mxPoint x="410" y="350" />
              <mxPoint x="410" y="420" />
            </Array>
            <mxPoint as="offset" />
          </mxGeometry>
        </mxCell>
        <mxCell id="pQgPjIyGJ7DModx60rK_-17" value="RF" style="rounded=0;whiteSpace=wrap;html=1;" vertex="1" parent="1">
          <mxGeometry x="420" y="300" width="40" height="40" as="geometry" />
        </mxCell>
        <mxCell id="pQgPjIyGJ7DModx60rK_-18" style="edgeStyle=orthogonalEdgeStyle;rounded=0;orthogonalLoop=1;jettySize=auto;html=1;exitX=1;exitY=0.5;exitDx=0;exitDy=0;entryX=0;entryY=0.5;entryDx=0;entryDy=0;" edge="1" parent="1" source="pQgPjIyGJ7DModx60rK_-19" target="pQgPjIyGJ7DModx60rK_-16">
          <mxGeometry relative="1" as="geometry" />
        </mxCell>
        <mxCell id="pQgPjIyGJ7DModx60rK_-19" value="E" style="rounded=0;whiteSpace=wrap;html=1;" vertex="1" parent="1">
          <mxGeometry x="300" y="300" width="40" height="40" as="geometry" />
        </mxCell>
        <mxCell id="pQgPjIyGJ7DModx60rK_-20" style="edgeStyle=orthogonalEdgeStyle;rounded=0;orthogonalLoop=1;jettySize=auto;html=1;exitX=1;exitY=0.5;exitDx=0;exitDy=0;" edge="1" parent="1" source="pQgPjIyGJ7DModx60rK_-21" target="pQgPjIyGJ7DModx60rK_-23">
          <mxGeometry relative="1" as="geometry" />
        </mxCell>
        <mxCell id="pQgPjIyGJ7DModx60rK_-21" value="IM" style="rounded=0;whiteSpace=wrap;html=1;" vertex="1" parent="1">
          <mxGeometry x="240" y="360" width="40" height="40" as="geometry" />
        </mxCell>
        <mxCell id="pQgPjIyGJ7DModx60rK_-22" style="edgeStyle=orthogonalEdgeStyle;rounded=0;orthogonalLoop=1;jettySize=auto;html=1;exitX=1;exitY=0.5;exitDx=0;exitDy=0;entryX=0;entryY=0.5;entryDx=0;entryDy=0;" edge="1" parent="1" source="pQgPjIyGJ7DModx60rK_-23" target="pQgPjIyGJ7DModx60rK_-28">
          <mxGeometry relative="1" as="geometry" />
        </mxCell>
        <mxCell id="pQgPjIyGJ7DModx60rK_-23" value="RF" style="rounded=0;whiteSpace=wrap;html=1;" vertex="1" parent="1">
          <mxGeometry x="300" y="360" width="40" height="40" as="geometry" />
        </mxCell>
        <mxCell id="pQgPjIyGJ7DModx60rK_-24" style="edgeStyle=orthogonalEdgeStyle;rounded=0;orthogonalLoop=1;jettySize=auto;html=1;exitX=1;exitY=0.5;exitDx=0;exitDy=0;entryX=0;entryY=0.5;entryDx=0;entryDy=0;" edge="1" parent="1" source="pQgPjIyGJ7DModx60rK_-25" target="pQgPjIyGJ7DModx60rK_-26">
          <mxGeometry relative="1" as="geometry" />
        </mxCell>
        <mxCell id="pQgPjIyGJ7DModx60rK_-25" value="DM" style="rounded=0;whiteSpace=wrap;html=1;" vertex="1" parent="1">
          <mxGeometry x="420" y="360" width="40" height="40" as="geometry" />
        </mxCell>
        <mxCell id="pQgPjIyGJ7DModx60rK_-26" value="RF" style="rounded=0;whiteSpace=wrap;html=1;" vertex="1" parent="1">
          <mxGeometry x="480" y="360" width="40" height="40" as="geometry" />
        </mxCell>
        <mxCell id="pQgPjIyGJ7DModx60rK_-27" style="edgeStyle=orthogonalEdgeStyle;rounded=0;orthogonalLoop=1;jettySize=auto;html=1;exitX=1;exitY=0.5;exitDx=0;exitDy=0;entryX=0;entryY=0.5;entryDx=0;entryDy=0;" edge="1" parent="1" source="pQgPjIyGJ7DModx60rK_-28" target="pQgPjIyGJ7DModx60rK_-25">
          <mxGeometry relative="1" as="geometry" />
        </mxCell>
        <mxCell id="pQgPjIyGJ7DModx60rK_-28" value="E" style="rounded=0;whiteSpace=wrap;html=1;" vertex="1" parent="1">
          <mxGeometry x="360" y="360" width="40" height="40" as="geometry" />
        </mxCell>
        <mxCell id="pQgPjIyGJ7DModx60rK_-29" style="edgeStyle=orthogonalEdgeStyle;rounded=0;orthogonalLoop=1;jettySize=auto;html=1;exitX=1;exitY=0.5;exitDx=0;exitDy=0;" edge="1" parent="1" source="pQgPjIyGJ7DModx60rK_-30" target="pQgPjIyGJ7DModx60rK_-32">
          <mxGeometry relative="1" as="geometry" />
        </mxCell>
        <mxCell id="pQgPjIyGJ7DModx60rK_-30" value="IM" style="rounded=0;whiteSpace=wrap;html=1;" vertex="1" parent="1">
          <mxGeometry x="300" y="420" width="40" height="40" as="geometry" />
        </mxCell>
        <mxCell id="pQgPjIyGJ7DModx60rK_-31" style="edgeStyle=orthogonalEdgeStyle;rounded=0;orthogonalLoop=1;jettySize=auto;html=1;exitX=1;exitY=0.5;exitDx=0;exitDy=0;entryX=0;entryY=0.5;entryDx=0;entryDy=0;" edge="1" parent="1" source="pQgPjIyGJ7DModx60rK_-32" target="pQgPjIyGJ7DModx60rK_-37">
          <mxGeometry relative="1" as="geometry" />
        </mxCell>
        <mxCell id="pQgPjIyGJ7DModx60rK_-32" value="RF" style="rounded=0;whiteSpace=wrap;html=1;" vertex="1" parent="1">
          <mxGeometry x="360" y="420" width="40" height="40" as="geometry" />
        </mxCell>
        <mxCell id="pQgPjIyGJ7DModx60rK_-33" style="edgeStyle=orthogonalEdgeStyle;rounded=0;orthogonalLoop=1;jettySize=auto;html=1;exitX=1;exitY=0.5;exitDx=0;exitDy=0;entryX=0;entryY=0.5;entryDx=0;entryDy=0;" edge="1" parent="1" source="pQgPjIyGJ7DModx60rK_-34" target="pQgPjIyGJ7DModx60rK_-35">
          <mxGeometry relative="1" as="geometry" />
        </mxCell>
        <mxCell id="pQgPjIyGJ7DModx60rK_-83" style="edgeStyle=orthogonalEdgeStyle;rounded=0;orthogonalLoop=1;jettySize=auto;html=1;exitX=1;exitY=0.75;exitDx=0;exitDy=0;entryX=0;entryY=0.25;entryDx=0;entryDy=0;" edge="1" parent="1" source="pQgPjIyGJ7DModx60rK_-34" target="pQgPjIyGJ7DModx60rK_-70">
          <mxGeometry relative="1" as="geometry">
            <Array as="points">
              <mxPoint x="530" y="450" />
              <mxPoint x="530" y="550" />
            </Array>
          </mxGeometry>
        </mxCell>
        <mxCell id="pQgPjIyGJ7DModx60rK_-34" value="DM" style="rounded=0;whiteSpace=wrap;html=1;" vertex="1" parent="1">
          <mxGeometry x="480" y="420" width="40" height="40" as="geometry" />
        </mxCell>
        <mxCell id="pQgPjIyGJ7DModx60rK_-35" value="RF" style="rounded=0;whiteSpace=wrap;html=1;" vertex="1" parent="1">
          <mxGeometry x="540" y="420" width="40" height="40" as="geometry" />
        </mxCell>
        <mxCell id="pQgPjIyGJ7DModx60rK_-36" style="edgeStyle=orthogonalEdgeStyle;rounded=0;orthogonalLoop=1;jettySize=auto;html=1;exitX=1;exitY=0.5;exitDx=0;exitDy=0;entryX=0;entryY=0.5;entryDx=0;entryDy=0;" edge="1" parent="1" source="pQgPjIyGJ7DModx60rK_-37" target="pQgPjIyGJ7DModx60rK_-34">
          <mxGeometry relative="1" as="geometry" />
        </mxCell>
        <mxCell id="pQgPjIyGJ7DModx60rK_-37" value="E" style="rounded=0;whiteSpace=wrap;html=1;" vertex="1" parent="1">
          <mxGeometry x="420" y="420" width="40" height="40" as="geometry" />
        </mxCell>
        <mxCell id="pQgPjIyGJ7DModx60rK_-38" style="edgeStyle=orthogonalEdgeStyle;rounded=0;orthogonalLoop=1;jettySize=auto;html=1;exitX=1;exitY=0.5;exitDx=0;exitDy=0;" edge="1" parent="1" source="pQgPjIyGJ7DModx60rK_-39" target="pQgPjIyGJ7DModx60rK_-41">
          <mxGeometry relative="1" as="geometry" />
        </mxCell>
        <mxCell id="pQgPjIyGJ7DModx60rK_-39" value="IM" style="rounded=0;whiteSpace=wrap;html=1;" vertex="1" parent="1">
          <mxGeometry x="360" y="480" width="40" height="40" as="geometry" />
        </mxCell>
        <mxCell id="pQgPjIyGJ7DModx60rK_-40" style="edgeStyle=orthogonalEdgeStyle;rounded=0;orthogonalLoop=1;jettySize=auto;html=1;exitX=1;exitY=0.5;exitDx=0;exitDy=0;entryX=0;entryY=0.5;entryDx=0;entryDy=0;" edge="1" parent="1" source="pQgPjIyGJ7DModx60rK_-41" target="pQgPjIyGJ7DModx60rK_-46">
          <mxGeometry relative="1" as="geometry" />
        </mxCell>
        <mxCell id="pQgPjIyGJ7DModx60rK_-41" value="RF" style="rounded=0;whiteSpace=wrap;html=1;" vertex="1" parent="1">
          <mxGeometry x="420" y="480" width="40" height="40" as="geometry" />
        </mxCell>
        <mxCell id="pQgPjIyGJ7DModx60rK_-42" style="edgeStyle=orthogonalEdgeStyle;rounded=0;orthogonalLoop=1;jettySize=auto;html=1;exitX=1;exitY=0.5;exitDx=0;exitDy=0;entryX=0;entryY=0.5;entryDx=0;entryDy=0;" edge="1" parent="1" source="pQgPjIyGJ7DModx60rK_-43" target="pQgPjIyGJ7DModx60rK_-44">
          <mxGeometry relative="1" as="geometry" />
        </mxCell>
        <mxCell id="pQgPjIyGJ7DModx60rK_-43" value="DM" style="rounded=0;whiteSpace=wrap;html=1;" vertex="1" parent="1">
          <mxGeometry x="540" y="480" width="40" height="40" as="geometry" />
        </mxCell>
        <mxCell id="pQgPjIyGJ7DModx60rK_-44" value="RF" style="rounded=0;whiteSpace=wrap;html=1;" vertex="1" parent="1">
          <mxGeometry x="600" y="480" width="40" height="40" as="geometry" />
        </mxCell>
        <mxCell id="pQgPjIyGJ7DModx60rK_-45" style="edgeStyle=orthogonalEdgeStyle;rounded=0;orthogonalLoop=1;jettySize=auto;html=1;exitX=1;exitY=0.5;exitDx=0;exitDy=0;entryX=0;entryY=0.5;entryDx=0;entryDy=0;" edge="1" parent="1" source="pQgPjIyGJ7DModx60rK_-46" target="pQgPjIyGJ7DModx60rK_-43">
          <mxGeometry relative="1" as="geometry" />
        </mxCell>
        <mxCell id="pQgPjIyGJ7DModx60rK_-78" style="edgeStyle=orthogonalEdgeStyle;rounded=0;orthogonalLoop=1;jettySize=auto;html=1;exitX=1;exitY=0.75;exitDx=0;exitDy=0;entryX=0;entryY=0.75;entryDx=0;entryDy=0;" edge="1" parent="1" source="pQgPjIyGJ7DModx60rK_-46" target="pQgPjIyGJ7DModx60rK_-70">
          <mxGeometry relative="1" as="geometry">
            <Array as="points">
              <mxPoint x="530" y="510" />
              <mxPoint x="530" y="570" />
            </Array>
          </mxGeometry>
        </mxCell>
        <mxCell id="pQgPjIyGJ7DModx60rK_-46" value="E" style="rounded=0;whiteSpace=wrap;html=1;" vertex="1" parent="1">
          <mxGeometry x="480" y="480" width="40" height="40" as="geometry" />
        </mxCell>
        <mxCell id="pQgPjIyGJ7DModx60rK_-48" value="1" style="rounded=0;whiteSpace=wrap;html=1;" vertex="1" parent="1">
          <mxGeometry x="120" y="180" width="40" height="40" as="geometry" />
        </mxCell>
        <mxCell id="pQgPjIyGJ7DModx60rK_-49" value="2" style="rounded=0;whiteSpace=wrap;html=1;" vertex="1" parent="1">
          <mxGeometry x="180" y="180" width="40" height="40" as="geometry" />
        </mxCell>
        <mxCell id="pQgPjIyGJ7DModx60rK_-50" value="3" style="rounded=0;whiteSpace=wrap;html=1;" vertex="1" parent="1">
          <mxGeometry x="240" y="180" width="40" height="40" as="geometry" />
        </mxCell>
        <mxCell id="pQgPjIyGJ7DModx60rK_-51" value="4" style="rounded=0;whiteSpace=wrap;html=1;" vertex="1" parent="1">
          <mxGeometry x="300" y="180" width="40" height="40" as="geometry" />
        </mxCell>
        <mxCell id="pQgPjIyGJ7DModx60rK_-52" value="5" style="rounded=0;whiteSpace=wrap;html=1;" vertex="1" parent="1">
          <mxGeometry x="360" y="180" width="40" height="40" as="geometry" />
        </mxCell>
        <mxCell id="pQgPjIyGJ7DModx60rK_-53" value="6" style="rounded=0;whiteSpace=wrap;html=1;" vertex="1" parent="1">
          <mxGeometry x="420" y="180" width="40" height="40" as="geometry" />
        </mxCell>
        <mxCell id="pQgPjIyGJ7DModx60rK_-54" value="7" style="rounded=0;whiteSpace=wrap;html=1;" vertex="1" parent="1">
          <mxGeometry x="480" y="180" width="40" height="40" as="geometry" />
        </mxCell>
        <mxCell id="pQgPjIyGJ7DModx60rK_-55" value="8" style="rounded=0;whiteSpace=wrap;html=1;" vertex="1" parent="1">
          <mxGeometry x="540" y="180" width="40" height="40" as="geometry" />
        </mxCell>
        <mxCell id="pQgPjIyGJ7DModx60rK_-56" value="9" style="rounded=0;whiteSpace=wrap;html=1;" vertex="1" parent="1">
          <mxGeometry x="600" y="180" width="40" height="40" as="geometry" />
        </mxCell>
        <mxCell id="pQgPjIyGJ7DModx60rK_-57" value="and" style="rounded=0;whiteSpace=wrap;html=1;" vertex="1" parent="1">
          <mxGeometry x="60" y="240" width="40" height="40" as="geometry" />
        </mxCell>
        <mxCell id="pQgPjIyGJ7DModx60rK_-58" value="add" style="rounded=0;whiteSpace=wrap;html=1;" vertex="1" parent="1">
          <mxGeometry x="60" y="300" width="40" height="40" as="geometry" />
        </mxCell>
        <mxCell id="pQgPjIyGJ7DModx60rK_-59" value="sw" style="rounded=0;whiteSpace=wrap;html=1;" vertex="1" parent="1">
          <mxGeometry x="60" y="360" width="40" height="40" as="geometry" />
        </mxCell>
        <mxCell id="pQgPjIyGJ7DModx60rK_-60" value="lw" style="rounded=0;whiteSpace=wrap;html=1;" vertex="1" parent="1">
          <mxGeometry x="60" y="420" width="40" height="40" as="geometry" />
        </mxCell>
        <mxCell id="pQgPjIyGJ7DModx60rK_-61" value="sub" style="rounded=0;whiteSpace=wrap;html=1;" vertex="1" parent="1">
          <mxGeometry x="60" y="480" width="40" height="40" as="geometry" />
        </mxCell>
        <mxCell id="pQgPjIyGJ7DModx60rK_-62" style="edgeStyle=orthogonalEdgeStyle;rounded=0;orthogonalLoop=1;jettySize=auto;html=1;exitX=1;exitY=0.5;exitDx=0;exitDy=0;" edge="1" parent="1" source="pQgPjIyGJ7DModx60rK_-63" target="pQgPjIyGJ7DModx60rK_-65">
          <mxGeometry relative="1" as="geometry" />
        </mxCell>
        <mxCell id="pQgPjIyGJ7DModx60rK_-63" value="IM" style="rounded=0;whiteSpace=wrap;html=1;" vertex="1" parent="1">
          <mxGeometry x="420" y="540" width="40" height="40" as="geometry" />
        </mxCell>
        <mxCell id="pQgPjIyGJ7DModx60rK_-64" style="edgeStyle=orthogonalEdgeStyle;rounded=0;orthogonalLoop=1;jettySize=auto;html=1;exitX=1;exitY=0.5;exitDx=0;exitDy=0;entryX=0;entryY=0.5;entryDx=0;entryDy=0;" edge="1" parent="1" source="pQgPjIyGJ7DModx60rK_-65" target="pQgPjIyGJ7DModx60rK_-70">
          <mxGeometry relative="1" as="geometry" />
        </mxCell>
        <mxCell id="pQgPjIyGJ7DModx60rK_-65" value="RF" style="rounded=0;whiteSpace=wrap;html=1;" vertex="1" parent="1">
          <mxGeometry x="480" y="540" width="40" height="40" as="geometry" />
        </mxCell>
        <mxCell id="pQgPjIyGJ7DModx60rK_-66" style="edgeStyle=orthogonalEdgeStyle;rounded=0;orthogonalLoop=1;jettySize=auto;html=1;exitX=1;exitY=0.5;exitDx=0;exitDy=0;entryX=0;entryY=0.5;entryDx=0;entryDy=0;" edge="1" parent="1" source="pQgPjIyGJ7DModx60rK_-67" target="pQgPjIyGJ7DModx60rK_-68">
          <mxGeometry relative="1" as="geometry" />
        </mxCell>
        <mxCell id="pQgPjIyGJ7DModx60rK_-67" value="DM" style="rounded=0;whiteSpace=wrap;html=1;" vertex="1" parent="1">
          <mxGeometry x="600" y="540" width="40" height="40" as="geometry" />
        </mxCell>
        <mxCell id="pQgPjIyGJ7DModx60rK_-68" value="RF" style="rounded=0;whiteSpace=wrap;html=1;" vertex="1" parent="1">
          <mxGeometry x="660" y="540" width="40" height="40" as="geometry" />
        </mxCell>
        <mxCell id="pQgPjIyGJ7DModx60rK_-69" style="edgeStyle=orthogonalEdgeStyle;rounded=0;orthogonalLoop=1;jettySize=auto;html=1;exitX=1;exitY=0.5;exitDx=0;exitDy=0;entryX=0;entryY=0.5;entryDx=0;entryDy=0;" edge="1" parent="1" source="pQgPjIyGJ7DModx60rK_-70" target="pQgPjIyGJ7DModx60rK_-67">
          <mxGeometry relative="1" as="geometry" />
        </mxCell>
        <mxCell id="pQgPjIyGJ7DModx60rK_-70" value="E" style="rounded=0;whiteSpace=wrap;html=1;" vertex="1" parent="1">
          <mxGeometry x="540" y="540" width="40" height="40" as="geometry" />
        </mxCell>
        <mxCell id="pQgPjIyGJ7DModx60rK_-71" value="add" style="rounded=0;whiteSpace=wrap;html=1;" vertex="1" parent="1">
          <mxGeometry x="60" y="540" width="40" height="40" as="geometry" />
        </mxCell>
        <mxCell id="pQgPjIyGJ7DModx60rK_-72" value="10" style="rounded=0;whiteSpace=wrap;html=1;" vertex="1" parent="1">
          <mxGeometry x="660" y="180" width="40" height="40" as="geometry" />
        </mxCell>
        <mxCell id="pQgPjIyGJ7DModx60rK_-73" value="" style="rounded=0;whiteSpace=wrap;html=1;" vertex="1" parent="1">
          <mxGeometry x="60" y="180" width="40" height="40" as="geometry" />
        </mxCell>
        <mxCell id="pQgPjIyGJ7DModx60rK_-82" value="Clock" style="rounded=0;whiteSpace=wrap;html=1;" vertex="1" parent="1">
          <mxGeometry x="180" y="120" width="400" height="40" as="geometry" />
        </mxCell>
      </root>
    </mxGraphModel>
  </diagram>
</mxfile>
